<svg width="19" height="12" viewBox="0 0 19 12" fill="none" xmlns="http://www.w3.org/2000/svg">
<path d="M18.7939 0.803056C18.8293 0.686856 18.8461 0.578256 18.8419 0.482256C18.8301 0.202656 18.6381 -0.000244141 18.1859 -0.000244141H16.1648C15.6545 -0.000244141 15.4196 0.308756 15.2815 0.617856C15.2815 0.617856 14.0217 3.21066 12.5699 4.92016C12.0992 5.41526 11.86 5.40266 11.6048 5.40266C11.4684 5.40266 11.1232 5.23766 11.1232 4.78456V0.782056C11.1232 0.246456 10.9893 -0.000244141 10.5581 -0.000244141H6.9699C6.6558 -0.000244141 6.4924 0.246456 6.4924 0.494856C6.4924 1.00946 7.1855 1.13316 7.2646 2.57576V5.37236C7.2646 6.05196 7.1467 6.17486 6.8916 6.17486C6.2044 6.17486 4.852 3.85906 3.94673 0.824156C3.75052 0.227056 3.55431 -0.000244141 3.04399 -0.000244141H1.00357C0.414936 -0.000244141 0.316406 0.288556 0.316406 0.596756C0.316406 1.15346 0.779566 4.16226 3.30757 7.62166C5.1408 10.1303 7.556 11.5779 9.6941 11.5779C10.9893 11.5779 11.1223 11.2486 11.1223 10.7332V8.43926C11.1232 7.82116 11.2646 7.71846 11.6764 7.71846C11.9703 7.71846 12.5699 7.91126 13.7278 9.26206C15.0634 10.82 15.3059 11.5779 16.0714 11.5779H18.0924C18.5615 11.5779 18.8309 11.3808 18.8419 10.9993C18.8444 10.9025 18.8301 10.793 18.7989 10.6718C18.649 10.2271 17.9619 9.13996 17.1055 8.10416C16.6305 7.53066 16.1623 6.96226 15.9467 6.65406C15.8027 6.45276 15.748 6.31046 15.7547 6.17486C15.7615 6.03176 15.8356 5.89616 15.9467 5.70666C15.9274 5.70666 18.5387 2.03926 18.7939 0.803056Z" fill="#414141"/>
</svg>
