<svg width="16" height="17" viewBox="0 0 16 17" fill="none" xmlns="http://www.w3.org/2000/svg">
<path d="M4.13004 15.498C5.27903 16.1345 6.59871 16.4994 8.00387 16.4994C12.4211 16.4994 16 12.9129 16 8.49557C16 4.07832 12.4211 0.499512 8.00387 0.499512C3.58661 0.499512 0 4.07832 0 8.49557C0 9.91625 0.372661 11.236 1.01698 12.3927L0 16.4994L4.13004 15.498ZM4.57256 4.96333C4.75884 4.78476 5.0306 4.7149 5.27903 4.76927L5.53516 4.82361C5.79137 4.87791 6.00099 5.04874 6.10192 5.28161L6.60649 6.39953C6.73072 6.67122 6.68416 6.99728 6.48229 7.22241L6.17174 7.5873C6.07084 7.70372 6.04757 7.88225 6.12518 8.02204C7.04123 9.66782 8.24452 10.2035 8.78016 10.3665C8.93544 10.4208 9.11404 10.351 9.19942 10.2112L9.42455 9.86191C9.64194 9.5281 10.0689 9.41161 10.5424 9.64452L11.474 10.1103C11.8311 10.2811 11.9942 10.7003 11.8622 11.0729C11.3887 12.447 10.1776 12.2762 10.1776 12.2762C7.49152 12.2063 5.38766 9.72989 4.4794 8.45678C4.06018 7.85899 3.804 7.13703 3.88161 6.39952C3.95928 5.66976 4.30087 5.21175 4.57256 4.96333Z" fill="#414141"/>
</svg>
